<svg xmlns="http://www.w3.org/2000/svg" version="1.1" viewBox="0.8598008751869202 0.4026886224746704 632.9608154296875 629.7296752929688" width="635.00" height="631.00">
<g stroke-width="2.00" fill="none" stroke-linecap="butt">
<path stroke="#857213" d="&#xA;  M 233.82 102.58&#xA;  C 236.05 100.46 238.29 100.48 241.11 100.45&#xA;  A 1.36 1.36 0.0 0 0 242.17 98.26&#xA;  C 240.22 95.73 238.20 93.28 234.64 93.79&#xA;  A 0.48 0.48 0.0 0 0 234.27 94.45&#xA;  Q 234.40 94.77 234.66 95.00&#xA;  A 0.76 0.74 -66.3 0 1 234.91 95.66&#xA;  Q 234.22 100.65 231.17 103.04&#xA;  C 229.08 104.67 228.96 107.00 229.45 109.35&#xA;  Q 229.56 109.86 230.01 110.13&#xA;  Q 232.16 111.42 234.42 111.40&#xA;  Q 235.00 111.39 234.89 111.96&#xA;  L 234.69 113.02&#xA;  Q 234.55 113.77 235.28 113.96&#xA;  L 236.34 114.23&#xA;  Q 236.83 114.36 237.23 114.68&#xA;  C 239.09 116.14 242.15 115.68 244.32 115.17&#xA;  Q 246.45 114.67 248.60 114.69&#xA;  Q 253.67 114.76 259.03 114.83&#xA;  Q 260.64 114.86 261.69 115.89&#xA;  Q 264.20 118.35 267.81 123.57&#xA;  Q 275.14 134.14 281.97 145.05&#xA;  Q 286.52 152.32 291.67 158.37&#xA;  A 1.84 1.84 0.0 0 0 293.76 158.88&#xA;  L 300.45 156.19&#xA;  A 1.60 1.60 0.0 0 0 301.27 153.97&#xA;  C 297.05 145.81 291.13 138.24 286.34 130.56&#xA;  Q 278.09 117.34 267.66 104.13&#xA;  Q 266.65 102.84 265.42 101.71&#xA;  Q 265.07 101.38 264.62 101.55&#xA;  L 257.53 104.08&#xA;  Q 257.01 104.27 256.50 104.10&#xA;  C 254.35 103.39 252.26 102.63 249.92 103.15&#xA;  Q 241.68 104.96 234.18 103.76&#xA;  Q 232.82 103.54 233.82 102.58"/>
<path stroke="#857213" d="&#xA;  M 249.55 227.99&#xA;  Q 248.65 226.70 247.57 225.68&#xA;  C 239.16 217.72 230.95 209.09 222.14 201.98&#xA;  Q 215.04 196.25 207.30 190.46&#xA;  Q 200.86 185.63 193.15 181.22&#xA;  Q 185.10 176.62 178.02 173.26&#xA;  Q 175.85 172.24 173.67 171.09&#xA;  Q 171.42 169.92 168.99 168.98&#xA;  Q 152.02 162.40 138.41 159.71&#xA;  Q 121.21 156.30 99.07 157.95&#xA;  Q 91.96 158.48 85.22 160.24&#xA;  Q 77.79 162.17 71.58 164.74&#xA;  Q 59.39 169.80 48.96 181.40&#xA;  C 44.81 186.02 41.83 193.43 39.48 199.43&#xA;  Q 37.50 204.51 36.61 209.23&#xA;  Q 34.92 218.21 34.68 226.86&#xA;  C 34.57 230.51 35.21 234.03 35.41 237.61&#xA;  Q 35.63 241.59 36.69 245.91&#xA;  Q 39.39 256.98 43.44 266.46&#xA;  Q 46.37 273.32 52.13 281.61&#xA;  Q 57.63 289.51 63.66 295.64&#xA;  Q 81.80 314.07 104.75 326.03&#xA;  C 110.66 329.11 116.29 332.02 122.60 334.50&#xA;  C 128.51 336.82 134.21 339.22 140.30 341.02&#xA;  C 148.07 343.32 155.63 345.70 163.59 347.40&#xA;  Q 169.17 348.58 174.75 349.94&#xA;  C 181.87 351.68 189.61 352.34 196.99 353.43&#xA;  Q 209.91 355.33 225.00 355.76&#xA;  C 227.75 355.84 230.40 356.25 233.09 356.28&#xA;  Q 320.14 357.11 407.24 356.29&#xA;  Q 410.81 356.26 414.18 355.71&#xA;  Q 417.67 355.14 421.32 355.28&#xA;  C 422.09 355.31 422.95 354.79 423.77 354.77&#xA;  Q 434.28 354.48 444.50 352.92&#xA;  Q 451.83 351.80 458.75 350.75&#xA;  C 463.48 350.04 467.97 348.75 472.64 347.88&#xA;  Q 478.09 346.87 483.10 345.48&#xA;  Q 504.45 339.59 525.78 329.99&#xA;  Q 530.42 327.90 534.63 325.46&#xA;  C 539.53 322.63 544.61 320.09 549.16 316.73&#xA;  C 553.44 313.56 557.80 311.00 561.98 307.54&#xA;  Q 575.37 296.45 586.11 282.15&#xA;  Q 589.37 277.81 591.70 273.78&#xA;  C 594.96 268.13 597.15 262.17 599.38 256.09&#xA;  C 601.65 249.94 603.40 242.07 604.23 235.98&#xA;  C 605.74 224.80 604.47 211.94 600.34 200.83&#xA;  Q 597.26 192.53 595.53 189.41&#xA;  C 589.46 178.52 578.42 169.99 567.04 165.10&#xA;  C 561.26 162.60 554.77 160.98 548.45 159.30&#xA;  C 545.72 158.57 542.41 158.40 539.50 157.96&#xA;  C 531.16 156.70 520.71 157.49 511.37 157.72&#xA;  Q 511.25 157.72 511.15 157.78&#xA;  Q 510.99 157.85 510.85 157.96&#xA;  A 1.52 1.50 22.6 0 1 510.13 158.25&#xA;  Q 503.88 159.00 499.00 159.73&#xA;  C 495.58 160.25 492.54 161.62 489.25 162.40&#xA;  Q 475.64 165.66 461.24 172.76&#xA;  C 456.77 174.97 452.20 177.34 447.99 179.90&#xA;  Q 437.11 186.48 430.90 190.90&#xA;  Q 422.53 196.86 410.65 207.08&#xA;  C 406.18 210.93 400.32 216.15 397.16 221.27&#xA;  Q 396.71 222.00 396.71 221.14&#xA;  Q 396.70 213.92 395.33 208.75&#xA;  Q 390.37 190.08 375.66 176.08&#xA;  Q 366.16 167.03 354.27 160.94&#xA;  Q 352.76 160.17 353.75 158.79&#xA;  L 384.71 115.95&#xA;  Q 384.95 115.62 385.38 115.54&#xA;  C 390.60 114.54 395.91 114.07 401.18 112.95&#xA;  Q 408.60 111.37 416.79 110.04&#xA;  Q 417.72 109.89 417.72 108.95&#xA;  L 417.69 96.28&#xA;  A 0.52 0.52 0.0 0 0 417.01 95.79&#xA;  Q 408.23 98.70 399.27 101.34&#xA;  C 395.19 102.54 391.03 102.57 386.88 103.38&#xA;  C 384.32 103.88 382.01 103.50 379.40 104.35&#xA;  C 376.68 105.23 374.89 108.15 373.34 110.49&#xA;  Q 360.15 130.36 343.45 156.17&#xA;  Q 343.15 156.64 342.61 156.50&#xA;  Q 337.37 155.19 332.96 154.63&#xA;  Q 329.27 154.16 325.55 153.86&#xA;  Q 321.93 153.56 317.49 154.12&#xA;  Q 314.71 154.47 312.01 154.89&#xA;  Q 307.09 155.65 302.03 156.73&#xA;  Q 297.84 157.61 294.89 159.16&#xA;  C 289.11 162.18 283.18 164.58 277.90 168.66&#xA;  C 265.14 178.54 253.95 193.51 250.87 209.39&#xA;  Q 249.12 218.41 249.96 227.84&#xA;  Q 250.04 228.70 249.55 227.99"/>
<path stroke="#857213" d="&#xA;  M 414.86 443.43&#xA;  A 0.63 0.63 0.0 0 0 415.49 442.80&#xA;  L 415.55 383.34&#xA;  A 0.63 0.63 0.0 0 0 414.92 382.71&#xA;  L 224.33 382.72&#xA;  A 0.63 0.63 0.0 0 0 223.70 383.35&#xA;  L 223.74 442.10&#xA;  A 0.63 0.63 0.0 0 0 224.37 442.73&#xA;  L 414.86 443.43"/>
<path stroke="#857213" d="&#xA;  M 308.47 526.13&#xA;  C 310.50 530.65 312.12 535.37 314.23 539.96&#xA;  Q 318.56 549.42 321.69 559.24&#xA;  Q 321.75 559.44 321.95 559.39&#xA;  L 322.20 559.34&#xA;  Q 322.29 559.32 322.26 559.24&#xA;  C 321.98 558.41 321.67 557.52 321.80 556.62&#xA;  Q 322.43 552.32 322.86 550.82&#xA;  C 324.51 544.97 325.83 539.22 328.22 533.83&#xA;  Q 329.59 530.72 330.33 527.13&#xA;  A 2.82 2.82 0.0 0 1 332.66 524.92&#xA;  Q 346.19 522.83 359.04 516.53&#xA;  C 363.05 514.56 367.22 512.48 370.87 509.91&#xA;  Q 383.62 500.91 391.48 490.96&#xA;  Q 393.86 487.94 396.34 485.02&#xA;  C 397.90 483.18 398.84 481.11 400.82 479.67&#xA;  Q 402.29 478.59 400.50 478.60&#xA;  L 240.00 479.26&#xA;  A 0.59 0.59 0.0 0 0 239.51 480.18&#xA;  Q 251.40 497.97 267.04 508.87&#xA;  Q 273.64 513.47 286.02 519.06&#xA;  C 292.73 522.09 300.36 523.53 307.57 525.37&#xA;  Q 308.20 525.53 308.47 526.13"/>
<path stroke="#857213" d="&#xA;  M 241.22 111.55&#xA;  Q 239.42 112.18 237.77 111.13&#xA;  Q 237.07 110.68 236.75 111.45&#xA;  Q 236.36 112.39 236.95 113.40&#xA;  A 0.83 0.82 -38.3 0 0 238.26 113.55&#xA;  Q 239.49 112.27 241.33 111.92&#xA;  Q 241.41 111.90 241.38 111.82&#xA;  L 241.30 111.59&#xA;  A 0.06 0.06 0.0 0 0 241.22 111.55"/>
<path stroke="#878186" d="&#xA;  M 297.05 218.12&#xA;  C 297.77 219.36 299.13 219.15 300.21 220.09&#xA;  Q 302.81 222.36 303.96 224.93&#xA;  Q 303.98 224.98 304.03 224.95&#xA;  L 304.26 224.82&#xA;  Q 304.46 224.70 304.33 224.51&#xA;  Q 303.31 223.01 303.43 221.30&#xA;  Q 303.47 220.77 303.12 220.38&#xA;  Q 301.47 218.57 301.81 215.62&#xA;  Q 301.87 215.07 302.38 215.29&#xA;  Q 305.12 216.51 308.54 214.37&#xA;  Q 308.94 214.11 308.98 213.64&#xA;  Q 309.08 212.68 310.03 212.90&#xA;  Q 310.89 213.09 310.62 212.25&#xA;  Q 310.37 211.48 310.41 210.63&#xA;  Q 310.44 209.87 309.71 210.02&#xA;  Q 308.96 210.17 308.61 210.81&#xA;  A 0.43 0.43 0.0 0 1 307.85 210.80&#xA;  Q 306.87 208.80 309.30 208.70&#xA;  Q 310.49 208.65 309.67 207.79&#xA;  L 309.02 207.11&#xA;  A 0.49 0.48 40.9 0 1 308.97 206.50&#xA;  L 309.14 206.27&#xA;  Q 309.50 205.74 309.94 206.21&#xA;  Q 310.37 206.67 310.36 207.30&#xA;  A 0.95 0.93 18.3 0 0 310.77 208.09&#xA;  Q 313.43 209.89 314.03 213.09&#xA;  Q 314.04 213.14 314.01 213.18&#xA;  Q 313.99 213.20 314.26 212.99&#xA;  Q 314.32 212.94 314.29 212.86&#xA;  L 310.41 204.02&#xA;  Q 310.19 203.53 310.31 202.99&#xA;  L 311.12 199.31&#xA;  Q 311.24 198.74 311.81 198.60&#xA;  Q 312.26 198.49 312.74 198.57&#xA;  Q 312.88 198.60 312.94 198.73&#xA;  Q 312.97 198.80 313.02 198.85&#xA;  Q 313.70 199.49 313.33 198.63&#xA;  Q 313.02 197.94 312.86 197.24&#xA;  A 1.31 1.30 -26.6 0 1 313.30 195.93&#xA;  C 315.02 194.50 313.98 193.26 314.28 191.53&#xA;  Q 314.43 190.71 314.39 189.75&#xA;  Q 314.37 189.26 314.69 188.88&#xA;  Q 315.38 188.06 315.45 187.02&#xA;  Q 315.48 186.68 315.14 186.64&#xA;  Q 313.10 186.41 313.74 184.18&#xA;  A 1.02 1.02 0.0 0 1 315.37 183.67&#xA;  Q 315.74 183.97 316.09 184.29&#xA;  Q 316.24 184.43 316.39 184.28&#xA;  L 316.39 184.27&#xA;  Q 316.54 184.12 316.39 183.97&#xA;  Q 314.55 182.15 313.44 180.33&#xA;  C 311.92 177.85 309.27 176.58 306.51 176.72&#xA;  C 302.06 176.94 296.99 178.17 293.07 180.75&#xA;  C 289.57 183.06 286.38 184.70 283.82 188.30&#xA;  C 282.49 190.18 280.48 191.32 279.14 193.17&#xA;  Q 276.55 196.75 273.95 200.63&#xA;  C 270.29 206.11 268.78 211.57 267.68 218.02&#xA;  C 267.30 220.22 268.00 222.43 267.88 224.67&#xA;  Q 267.85 225.12 268.11 225.51&#xA;  Q 268.97 226.79 269.95 228.07&#xA;  C 271.84 230.54 275.42 230.92 278.36 230.61&#xA;  Q 279.80 230.46 279.88 231.84&#xA;  Q 279.91 232.33 280.30 232.04&#xA;  L 283.06 230.02&#xA;  Q 283.41 229.76 283.81 229.92&#xA;  C 284.79 230.30 285.67 231.10 286.80 230.80&#xA;  Q 287.56 230.60 287.30 229.86&#xA;  L 287.08 229.24&#xA;  A 0.45 0.45 0.0 0 1 287.42 228.64&#xA;  L 288.18 228.48&#xA;  Q 288.60 228.39 288.72 228.81&#xA;  Q 289.19 230.65 291.03 229.97&#xA;  Q 291.67 229.73 291.31 229.16&#xA;  L 290.12 227.27&#xA;  Q 289.54 226.34 290.55 226.77&#xA;  Q 291.93 227.34 292.38 229.07&#xA;  Q 292.88 231.06 293.49 229.10&#xA;  Q 294.04 227.31 293.21 225.25&#xA;  Q 293.03 224.79 293.38 224.44&#xA;  A 0.64 0.63 38.3 0 1 294.18 224.35&#xA;  Q 296.58 225.89 296.16 228.42&#xA;  Q 296.03 229.18 296.61 228.67&#xA;  C 298.58 226.94 296.97 223.88 295.98 221.98&#xA;  Q 295.62 221.27 296.26 221.74&#xA;  Q 297.17 222.41 298.37 222.72&#xA;  A 0.60 0.60 0.0 0 0 299.09 221.94&#xA;  Q 298.50 220.16 296.78 218.54&#xA;  Q 296.67 218.44 296.77 218.32&#xA;  L 296.97 218.11&#xA;  A 0.05 0.05 0.0 0 1 297.05 218.12"/>
<path stroke="#878186" d="&#xA;  M 317.25 189.25&#xA;  Q 316.97 189.77 316.68 190.32&#xA;  Q 316.46 190.74 316.91 190.62&#xA;  Q 317.08 190.58 317.24 190.64&#xA;  A 0.35 0.34 30.5 0 0 317.64 190.54&#xA;  Q 318.06 189.99 317.79 189.29&#xA;  A 0.30 0.30 0.0 0 0 317.25 189.25"/>
<path stroke="#878186" d="&#xA;  M 318.46 194.76&#xA;  A 0.66 0.66 0.0 0 0 317.70 193.84&#xA;  Q 317.02 194.00 316.73 194.84&#xA;  Q 316.47 195.63 317.30 195.59&#xA;  Q 318.10 195.55 318.46 194.76"/>
<path stroke="#878186" d="&#xA;  M 318.48 199.21&#xA;  Q 317.79 198.21 317.97 199.41&#xA;  Q 318.03 199.83 318.34 200.16&#xA;  Q 318.68 200.52 318.70 200.03&#xA;  Q 318.72 199.55 318.48 199.21"/>
<path stroke="#878186" d="&#xA;  M 317.21 203.85&#xA;  A 0.27 0.27 0.0 0 0 317.65 203.71&#xA;  Q 317.80 203.14 317.28 202.88&#xA;  Q 316.88 202.67 316.88 203.12&#xA;  Q 316.87 203.56 317.21 203.85"/>
<path stroke="#878186" d="&#xA;  M 307.75 218.37&#xA;  A 0.52 0.52 0.0 0 0 307.92 218.48&#xA;  L 310.27 219.48&#xA;  A 0.52 0.52 0.0 0 0 310.95 218.80&#xA;  L 309.54 215.40&#xA;  A 0.52 0.52 0.0 0 0 308.89 215.11&#xA;  L 306.45 215.97&#xA;  A 0.52 0.52 0.0 0 0 306.25 216.82&#xA;  L 307.75 218.37"/>
<path stroke="#878186" d="&#xA;  M 305.5990 219.7057&#xA;  A 1.80 1.10 46.5 0 0 305.1579 217.6428&#xA;  A 1.80 1.10 46.5 0 0 303.1210 217.0943&#xA;  A 1.80 1.10 46.5 0 0 303.5621 219.1572&#xA;  A 1.80 1.10 46.5 0 0 305.5990 219.7057"/>
<path stroke="#878186" d="&#xA;  M 315.22 220.59&#xA;  Q 314.56 219.92 314.32 220.69&#xA;  A 0.49 0.48 -63.5 0 0 314.49 221.21&#xA;  Q 314.97 221.58 315.26 221.22&#xA;  A 0.48 0.47 41.7 0 0 315.22 220.59"/>
<path stroke="#878186" d="&#xA;  M 310.28 222.18&#xA;  L 310.98 222.13&#xA;  Q 311.22 222.12 311.10 221.91&#xA;  Q 311.02 221.77 310.74 221.71&#xA;  Q 309.32 221.43 307.95 221.29&#xA;  Q 307.35 221.22 307.52 221.80&#xA;  Q 308.03 223.54 310.00 224.75&#xA;  Q 310.56 225.09 310.22 224.52&#xA;  Q 309.77 223.78 309.75 222.76&#xA;  Q 309.73 222.21 310.28 222.18"/>
<path stroke="#878186" d="&#xA;  M 316.06 226.04&#xA;  Q 316.48 224.96 315.46 225.48&#xA;  Q 314.94 225.74 314.39 225.97&#xA;  Q 313.52 226.32 314.41 226.61&#xA;  Q 315.68 227.02 316.06 226.04"/>
<path stroke="#878186" d="&#xA;  M 278.51 233.23&#xA;  A 0.31 0.30 60.2 0 0 278.40 233.66&#xA;  Q 278.67 234.10 279.15 234.13&#xA;  Q 279.66 234.15 279.62 233.65&#xA;  Q 279.61 233.51 279.64 233.38&#xA;  Q 279.84 232.51 279.13 232.89&#xA;  L 278.51 233.23"/>
<path stroke="#857213" d="&#xA;  M 352.40 275.79&#xA;  Q 352.66 275.36 353.16 275.23&#xA;  Q 353.62 275.11 353.21 274.85&#xA;  Q 353.00 274.72 352.74 274.72&#xA;  Q 318.94 274.72 285.98 274.66&#xA;  Q 285.50 274.66 285.77 275.06&#xA;  Q 290.28 281.69 294.39 289.26&#xA;  C 294.98 290.34 295.92 291.26 296.49 292.30&#xA;  Q 307.23 311.88 318.59 332.24&#xA;  A 0.27 0.26 -45.9 0 0 319.06 332.23&#xA;  Q 322.93 324.60 327.43 316.80&#xA;  C 328.44 315.04 329.73 313.64 330.54 311.79&#xA;  C 331.96 308.52 334.12 305.61 335.84 302.31&#xA;  Q 339.55 295.23 344.81 286.86&#xA;  Q 346.82 283.65 348.69 281.19&#xA;  Q 350.72 278.52 352.40 275.79"/>
</g>
<path fill="#f9df16" d="&#xA;  M 34.99 175.51&#xA;  Q 40.87 163.23 45.95 155.30&#xA;  C 51.70 146.31 57.51 136.84 64.20 128.46&#xA;  Q 67.88 123.84 71.35 119.47&#xA;  C 77.08 112.25 83.48 105.55 89.70 98.68&#xA;  Q 94.91 92.92 100.48 87.72&#xA;  Q 112.77 76.23 120.04 70.62&#xA;  Q 127.83 64.61 135.84 58.73&#xA;  Q 139.70 55.90 143.87 53.29&#xA;  Q 146.55 51.61 149.37 49.63&#xA;  C 153.76 46.56 158.49 44.23 163.08 41.49&#xA;  C 171.01 36.76 179.36 32.78 187.89 28.89&#xA;  C 189.69 28.07 191.36 26.99 193.19 26.30&#xA;  Q 197.93 24.49 202.60 22.49&#xA;  C 203.44 22.13 204.55 22.15 205.27 21.79&#xA;  Q 212.93 18.05 221.25 16.06&#xA;  C 222.88 15.67 223.88 14.32 225.77 14.13&#xA;  C 228.97 13.81 231.75 12.35 234.96 11.75&#xA;  C 237.08 11.35 238.89 10.25 241.11 10.10&#xA;  Q 243.87 9.92 246.26 9.12&#xA;  Q 248.95 8.22 251.96 7.76&#xA;  C 254.59 7.35 257.00 6.37 259.65 5.94&#xA;  Q 270.52 4.16 281.19 2.54&#xA;  C 286.87 1.67 292.78 2.05 298.53 1.24&#xA;  Q 302.11 0.73 305.63 0.60&#xA;  Q 334.18 -0.41 363.59 3.75&#xA;  Q 367.08 4.24 370.57 4.94&#xA;  C 375.97 6.02 381.33 6.41 386.58 7.94&#xA;  Q 389.32 8.75 392.33 9.39&#xA;  Q 395.25 10.00 398.17 10.83&#xA;  Q 412.67 14.91 424.19 18.84&#xA;  Q 434.38 22.31 450.97 30.01&#xA;  Q 474.41 40.87 496.26 56.57&#xA;  Q 520.72 74.15 538.93 92.21&#xA;  Q 551.00 104.17 562.86 118.72&#xA;  Q 577.15 136.25 591.17 159.08&#xA;  C 595.89 166.77 599.20 174.89 603.45 182.78&#xA;  Q 605.94 187.39 607.98 192.09&#xA;  Q 617.66 214.41 624.15 237.58&#xA;  Q 626.92 247.44 628.69 257.24&#xA;  Q 631.80 274.37 632.48 286.15&#xA;  Q 632.88 293.06 633.27 297.41&#xA;  Q 633.77 303.09 633.79 308.66&#xA;  C 633.82 318.28 633.97 327.46 633.17 337.03&#xA;  C 632.66 343.11 632.78 349.22 631.92 355.24&#xA;  Q 628.49 379.13 626.24 387.53&#xA;  Q 617.15 421.32 604.43 447.27&#xA;  C 595.40 465.68 584.04 484.53 571.16 501.39&#xA;  Q 561.53 514.01 557.48 518.79&#xA;  C 540.23 539.11 521.47 555.75 498.73 572.59&#xA;  C 492.51 577.21 485.46 581.26 478.82 585.64&#xA;  C 467.21 593.28 453.08 599.70 439.07 605.94&#xA;  Q 428.32 610.72 420.31 613.24&#xA;  Q 397.14 620.52 388.98 622.47&#xA;  Q 361.91 628.93 331.85 629.96&#xA;  Q 309.26 630.73 282.97 628.06&#xA;  C 277.71 627.52 272.62 626.66 267.41 626.00&#xA;  C 262.59 625.39 258.05 624.19 253.32 623.28&#xA;  C 240.53 620.84 229.68 617.13 219.33 613.86&#xA;  C 212.98 611.86 207.03 609.45 200.77 607.00&#xA;  Q 188.73 602.29 166.85 590.76&#xA;  Q 151.96 582.92 128.45 566.23&#xA;  Q 123.94 563.02 117.99 557.93&#xA;  Q 95.97 539.06 76.56 517.17&#xA;  C 71.04 510.95 66.16 504.48 60.96 497.87&#xA;  C 58.19 494.36 55.91 490.79 53.38 487.22&#xA;  C 50.34 482.94 47.78 478.12 44.98 473.55&#xA;  C 40.17 465.71 35.67 457.63 31.50 448.95&#xA;  Q 25.21 435.84 21.68 426.42&#xA;  Q 20.34 422.82 19.07 419.61&#xA;  Q 17.73 416.19 16.71 412.73&#xA;  C 15.42 408.33 13.67 404.08 12.52 399.69&#xA;  Q 7.15 379.23 6.27 373.73&#xA;  Q 4.95 365.39 3.56 357.04&#xA;  C 2.59 351.22 2.61 345.55 2.00 339.71&#xA;  Q 1.07 330.92 1.20 320.68&#xA;  C 1.22 319.45 0.85 318.16 0.86 316.93&#xA;  Q 1.05 299.77 2.65 282.38&#xA;  Q 3.09 277.67 4.02 272.86&#xA;  C 4.80 268.83 4.89 264.89 5.69 260.86&#xA;  Q 8.21 248.04 10.53 238.67&#xA;  Q 15.65 217.91 26.47 193.84&#xA;  Q 30.56 184.77 34.99 175.51&#xA;  Z&#xA;  M 233.82 102.58&#xA;  C 236.05 100.46 238.29 100.48 241.11 100.45&#xA;  A 1.36 1.36 0.0 0 0 242.17 98.26&#xA;  C 240.22 95.73 238.20 93.28 234.64 93.79&#xA;  A 0.48 0.48 0.0 0 0 234.27 94.45&#xA;  Q 234.40 94.77 234.66 95.00&#xA;  A 0.76 0.74 -66.3 0 1 234.91 95.66&#xA;  Q 234.22 100.65 231.17 103.04&#xA;  C 229.08 104.67 228.96 107.00 229.45 109.35&#xA;  Q 229.56 109.86 230.01 110.13&#xA;  Q 232.16 111.42 234.42 111.40&#xA;  Q 235.00 111.39 234.89 111.96&#xA;  L 234.69 113.02&#xA;  Q 234.55 113.77 235.28 113.96&#xA;  L 236.34 114.23&#xA;  Q 236.83 114.36 237.23 114.68&#xA;  C 239.09 116.14 242.15 115.68 244.32 115.17&#xA;  Q 246.45 114.67 248.60 114.69&#xA;  Q 253.67 114.76 259.03 114.83&#xA;  Q 260.64 114.86 261.69 115.89&#xA;  Q 264.20 118.35 267.81 123.57&#xA;  Q 275.14 134.14 281.97 145.05&#xA;  Q 286.52 152.32 291.67 158.37&#xA;  A 1.84 1.84 0.0 0 0 293.76 158.88&#xA;  L 300.45 156.19&#xA;  A 1.60 1.60 0.0 0 0 301.27 153.97&#xA;  C 297.05 145.81 291.13 138.24 286.34 130.56&#xA;  Q 278.09 117.34 267.66 104.13&#xA;  Q 266.65 102.84 265.42 101.71&#xA;  Q 265.07 101.38 264.62 101.55&#xA;  L 257.53 104.08&#xA;  Q 257.01 104.27 256.50 104.10&#xA;  C 254.35 103.39 252.26 102.63 249.92 103.15&#xA;  Q 241.68 104.96 234.18 103.76&#xA;  Q 232.82 103.54 233.82 102.58&#xA;  Z&#xA;  M 249.55 227.99&#xA;  Q 248.65 226.70 247.57 225.68&#xA;  C 239.16 217.72 230.95 209.09 222.14 201.98&#xA;  Q 215.04 196.25 207.30 190.46&#xA;  Q 200.86 185.63 193.15 181.22&#xA;  Q 185.10 176.62 178.02 173.26&#xA;  Q 175.85 172.24 173.67 171.09&#xA;  Q 171.42 169.92 168.99 168.98&#xA;  Q 152.02 162.40 138.41 159.71&#xA;  Q 121.21 156.30 99.07 157.95&#xA;  Q 91.96 158.48 85.22 160.24&#xA;  Q 77.79 162.17 71.58 164.74&#xA;  Q 59.39 169.80 48.96 181.40&#xA;  C 44.81 186.02 41.83 193.43 39.48 199.43&#xA;  Q 37.50 204.51 36.61 209.23&#xA;  Q 34.92 218.21 34.68 226.86&#xA;  C 34.57 230.51 35.21 234.03 35.41 237.61&#xA;  Q 35.63 241.59 36.69 245.91&#xA;  Q 39.39 256.98 43.44 266.46&#xA;  Q 46.37 273.32 52.13 281.61&#xA;  Q 57.63 289.51 63.66 295.64&#xA;  Q 81.80 314.07 104.75 326.03&#xA;  C 110.66 329.11 116.29 332.02 122.60 334.50&#xA;  C 128.51 336.82 134.21 339.22 140.30 341.02&#xA;  C 148.07 343.32 155.63 345.70 163.59 347.40&#xA;  Q 169.17 348.58 174.75 349.94&#xA;  C 181.87 351.68 189.61 352.34 196.99 353.43&#xA;  Q 209.91 355.33 225.00 355.76&#xA;  C 227.75 355.84 230.40 356.25 233.09 356.28&#xA;  Q 320.14 357.11 407.24 356.29&#xA;  Q 410.81 356.26 414.18 355.71&#xA;  Q 417.67 355.14 421.32 355.28&#xA;  C 422.09 355.31 422.95 354.79 423.77 354.77&#xA;  Q 434.28 354.48 444.50 352.92&#xA;  Q 451.83 351.80 458.75 350.75&#xA;  C 463.48 350.04 467.97 348.75 472.64 347.88&#xA;  Q 478.09 346.87 483.10 345.48&#xA;  Q 504.45 339.59 525.78 329.99&#xA;  Q 530.42 327.90 534.63 325.46&#xA;  C 539.53 322.63 544.61 320.09 549.16 316.73&#xA;  C 553.44 313.56 557.80 311.00 561.98 307.54&#xA;  Q 575.37 296.45 586.11 282.15&#xA;  Q 589.37 277.81 591.70 273.78&#xA;  C 594.96 268.13 597.15 262.17 599.38 256.09&#xA;  C 601.65 249.94 603.40 242.07 604.23 235.98&#xA;  C 605.74 224.80 604.47 211.94 600.34 200.83&#xA;  Q 597.26 192.53 595.53 189.41&#xA;  C 589.46 178.52 578.42 169.99 567.04 165.10&#xA;  C 561.26 162.60 554.77 160.98 548.45 159.30&#xA;  C 545.72 158.57 542.41 158.40 539.50 157.96&#xA;  C 531.16 156.70 520.71 157.49 511.37 157.72&#xA;  Q 511.25 157.72 511.15 157.78&#xA;  Q 510.99 157.85 510.85 157.96&#xA;  A 1.52 1.50 22.6 0 1 510.13 158.25&#xA;  Q 503.88 159.00 499.00 159.73&#xA;  C 495.58 160.25 492.54 161.62 489.25 162.40&#xA;  Q 475.64 165.66 461.24 172.76&#xA;  C 456.77 174.97 452.20 177.34 447.99 179.90&#xA;  Q 437.11 186.48 430.90 190.90&#xA;  Q 422.53 196.86 410.65 207.08&#xA;  C 406.18 210.93 400.32 216.15 397.16 221.27&#xA;  Q 396.71 222.00 396.71 221.14&#xA;  Q 396.70 213.92 395.33 208.75&#xA;  Q 390.37 190.08 375.66 176.08&#xA;  Q 366.16 167.03 354.27 160.94&#xA;  Q 352.76 160.17 353.75 158.79&#xA;  L 384.71 115.95&#xA;  Q 384.95 115.62 385.38 115.54&#xA;  C 390.60 114.54 395.91 114.07 401.18 112.95&#xA;  Q 408.60 111.37 416.79 110.04&#xA;  Q 417.72 109.89 417.72 108.95&#xA;  L 417.69 96.28&#xA;  A 0.52 0.52 0.0 0 0 417.01 95.79&#xA;  Q 408.23 98.70 399.27 101.34&#xA;  C 395.19 102.54 391.03 102.57 386.88 103.38&#xA;  C 384.32 103.88 382.01 103.50 379.40 104.35&#xA;  C 376.68 105.23 374.89 108.15 373.34 110.49&#xA;  Q 360.15 130.36 343.45 156.17&#xA;  Q 343.15 156.64 342.61 156.50&#xA;  Q 337.37 155.19 332.96 154.63&#xA;  Q 329.27 154.16 325.55 153.86&#xA;  Q 321.93 153.56 317.49 154.12&#xA;  Q 314.71 154.47 312.01 154.89&#xA;  Q 307.09 155.65 302.03 156.73&#xA;  Q 297.84 157.61 294.89 159.16&#xA;  C 289.11 162.18 283.18 164.58 277.90 168.66&#xA;  C 265.14 178.54 253.95 193.51 250.87 209.39&#xA;  Q 249.12 218.41 249.96 227.84&#xA;  Q 250.04 228.70 249.55 227.99&#xA;  Z&#xA;  M 414.86 443.43&#xA;  A 0.63 0.63 0.0 0 0 415.49 442.80&#xA;  L 415.55 383.34&#xA;  A 0.63 0.63 0.0 0 0 414.92 382.71&#xA;  L 224.33 382.72&#xA;  A 0.63 0.63 0.0 0 0 223.70 383.35&#xA;  L 223.74 442.10&#xA;  A 0.63 0.63 0.0 0 0 224.37 442.73&#xA;  L 414.86 443.43&#xA;  Z&#xA;  M 308.47 526.13&#xA;  C 310.50 530.65 312.12 535.37 314.23 539.96&#xA;  Q 318.56 549.42 321.69 559.24&#xA;  Q 321.75 559.44 321.95 559.39&#xA;  L 322.20 559.34&#xA;  Q 322.29 559.32 322.26 559.24&#xA;  C 321.98 558.41 321.67 557.52 321.80 556.62&#xA;  Q 322.43 552.32 322.86 550.82&#xA;  C 324.51 544.97 325.83 539.22 328.22 533.83&#xA;  Q 329.59 530.72 330.33 527.13&#xA;  A 2.82 2.82 0.0 0 1 332.66 524.92&#xA;  Q 346.19 522.83 359.04 516.53&#xA;  C 363.05 514.56 367.22 512.48 370.87 509.91&#xA;  Q 383.62 500.91 391.48 490.96&#xA;  Q 393.86 487.94 396.34 485.02&#xA;  C 397.90 483.18 398.84 481.11 400.82 479.67&#xA;  Q 402.29 478.59 400.50 478.60&#xA;  L 240.00 479.26&#xA;  A 0.59 0.59 0.0 0 0 239.51 480.18&#xA;  Q 251.40 497.97 267.04 508.87&#xA;  Q 273.64 513.47 286.02 519.06&#xA;  C 292.73 522.09 300.36 523.53 307.57 525.37&#xA;  Q 308.20 525.53 308.47 526.13&#xA;  Z"/>
<path fill="#110510" d="&#xA;  M 233.82 102.58&#xA;  Q 232.82 103.54 234.18 103.76&#xA;  Q 241.68 104.96 249.92 103.15&#xA;  C 252.26 102.63 254.35 103.39 256.50 104.10&#xA;  Q 257.01 104.27 257.53 104.08&#xA;  L 264.62 101.55&#xA;  Q 265.07 101.38 265.42 101.71&#xA;  Q 266.65 102.84 267.66 104.13&#xA;  Q 278.09 117.34 286.34 130.56&#xA;  C 291.13 138.24 297.05 145.81 301.27 153.97&#xA;  A 1.60 1.60 0.0 0 1 300.45 156.19&#xA;  L 293.76 158.88&#xA;  A 1.84 1.84 0.0 0 1 291.67 158.37&#xA;  Q 286.52 152.32 281.97 145.05&#xA;  Q 275.14 134.14 267.81 123.57&#xA;  Q 264.20 118.35 261.69 115.89&#xA;  Q 260.64 114.86 259.03 114.83&#xA;  Q 253.67 114.76 248.60 114.69&#xA;  Q 246.45 114.67 244.32 115.17&#xA;  C 242.15 115.68 239.09 116.14 237.23 114.68&#xA;  Q 236.83 114.36 236.34 114.23&#xA;  L 235.28 113.96&#xA;  Q 234.55 113.77 234.69 113.02&#xA;  L 234.89 111.96&#xA;  Q 235.00 111.39 234.42 111.40&#xA;  Q 232.16 111.42 230.01 110.13&#xA;  Q 229.56 109.86 229.45 109.35&#xA;  C 228.96 107.00 229.08 104.67 231.17 103.04&#xA;  Q 234.22 100.65 234.91 95.66&#xA;  A 0.76 0.74 -66.3 0 0 234.66 95.00&#xA;  Q 234.40 94.77 234.27 94.45&#xA;  A 0.48 0.48 0.0 0 1 234.64 93.79&#xA;  C 238.20 93.28 240.22 95.73 242.17 98.26&#xA;  A 1.36 1.36 0.0 0 1 241.11 100.45&#xA;  C 238.29 100.48 236.05 100.46 233.82 102.58&#xA;  Z&#xA;  M 241.22 111.55&#xA;  Q 239.42 112.18 237.77 111.13&#xA;  Q 237.07 110.68 236.75 111.45&#xA;  Q 236.36 112.39 236.95 113.40&#xA;  A 0.83 0.82 -38.3 0 0 238.26 113.55&#xA;  Q 239.49 112.27 241.33 111.92&#xA;  Q 241.41 111.90 241.38 111.82&#xA;  L 241.30 111.59&#xA;  A 0.06 0.06 0.0 0 0 241.22 111.55&#xA;  Z"/>
<path fill="#110510" d="&#xA;  M 249.96 227.84&#xA;  Q 249.12 218.41 250.87 209.39&#xA;  C 253.95 193.51 265.14 178.54 277.90 168.66&#xA;  C 283.18 164.58 289.11 162.18 294.89 159.16&#xA;  Q 297.84 157.61 302.03 156.73&#xA;  Q 307.09 155.65 312.01 154.89&#xA;  Q 314.71 154.47 317.49 154.12&#xA;  Q 321.93 153.56 325.55 153.86&#xA;  Q 329.27 154.16 332.96 154.63&#xA;  Q 337.37 155.19 342.61 156.50&#xA;  Q 343.15 156.64 343.45 156.17&#xA;  Q 360.15 130.36 373.34 110.49&#xA;  C 374.89 108.15 376.68 105.23 379.40 104.35&#xA;  C 382.01 103.50 384.32 103.88 386.88 103.38&#xA;  C 391.03 102.57 395.19 102.54 399.27 101.34&#xA;  Q 408.23 98.70 417.01 95.79&#xA;  A 0.52 0.52 0.0 0 1 417.69 96.28&#xA;  L 417.72 108.95&#xA;  Q 417.72 109.89 416.79 110.04&#xA;  Q 408.60 111.37 401.18 112.95&#xA;  C 395.91 114.07 390.60 114.54 385.38 115.54&#xA;  Q 384.95 115.62 384.71 115.95&#xA;  L 353.75 158.79&#xA;  Q 352.76 160.17 354.27 160.94&#xA;  Q 366.16 167.03 375.66 176.08&#xA;  Q 390.37 190.08 395.33 208.75&#xA;  Q 396.70 213.92 396.71 221.14&#xA;  Q 396.71 222.00 397.16 221.27&#xA;  C 400.32 216.15 406.18 210.93 410.65 207.08&#xA;  Q 422.53 196.86 430.90 190.90&#xA;  Q 437.11 186.48 447.99 179.90&#xA;  C 452.20 177.34 456.77 174.97 461.24 172.76&#xA;  Q 475.64 165.66 489.25 162.40&#xA;  C 492.54 161.62 495.58 160.25 499.00 159.73&#xA;  Q 503.88 159.00 510.13 158.25&#xA;  A 1.52 1.50 22.6 0 0 510.85 157.96&#xA;  Q 510.99 157.85 511.15 157.78&#xA;  Q 511.25 157.72 511.37 157.72&#xA;  C 520.71 157.49 531.16 156.70 539.50 157.96&#xA;  C 542.41 158.40 545.72 158.57 548.45 159.30&#xA;  C 554.77 160.98 561.26 162.60 567.04 165.10&#xA;  C 578.42 169.99 589.46 178.52 595.53 189.41&#xA;  Q 597.26 192.53 600.34 200.83&#xA;  C 604.47 211.94 605.74 224.80 604.23 235.98&#xA;  C 603.40 242.07 601.65 249.94 599.38 256.09&#xA;  C 597.15 262.17 594.96 268.13 591.70 273.78&#xA;  Q 589.37 277.81 586.11 282.15&#xA;  Q 575.37 296.45 561.98 307.54&#xA;  C 557.80 311.00 553.44 313.56 549.16 316.73&#xA;  C 544.61 320.09 539.53 322.63 534.63 325.46&#xA;  Q 530.42 327.90 525.78 329.99&#xA;  Q 504.45 339.59 483.10 345.48&#xA;  Q 478.09 346.87 472.64 347.88&#xA;  C 467.97 348.75 463.48 350.04 458.75 350.75&#xA;  Q 451.83 351.80 444.50 352.92&#xA;  Q 434.28 354.48 423.77 354.77&#xA;  C 422.95 354.79 422.09 355.31 421.32 355.28&#xA;  Q 417.67 355.14 414.18 355.71&#xA;  Q 410.81 356.26 407.24 356.29&#xA;  Q 320.14 357.11 233.09 356.28&#xA;  C 230.40 356.25 227.75 355.84 225.00 355.76&#xA;  Q 209.91 355.33 196.99 353.43&#xA;  C 189.61 352.34 181.87 351.68 174.75 349.94&#xA;  Q 169.17 348.58 163.59 347.40&#xA;  C 155.63 345.70 148.07 343.32 140.30 341.02&#xA;  C 134.21 339.22 128.51 336.82 122.60 334.50&#xA;  C 116.29 332.02 110.66 329.11 104.75 326.03&#xA;  Q 81.80 314.07 63.66 295.64&#xA;  Q 57.63 289.51 52.13 281.61&#xA;  Q 46.37 273.32 43.44 266.46&#xA;  Q 39.39 256.98 36.69 245.91&#xA;  Q 35.63 241.59 35.41 237.61&#xA;  C 35.21 234.03 34.57 230.51 34.68 226.86&#xA;  Q 34.92 218.21 36.61 209.23&#xA;  Q 37.50 204.51 39.48 199.43&#xA;  C 41.83 193.43 44.81 186.02 48.96 181.40&#xA;  Q 59.39 169.80 71.58 164.74&#xA;  Q 77.79 162.17 85.22 160.24&#xA;  Q 91.96 158.48 99.07 157.95&#xA;  Q 121.21 156.30 138.41 159.71&#xA;  Q 152.02 162.40 168.99 168.98&#xA;  Q 171.42 169.92 173.67 171.09&#xA;  Q 175.85 172.24 178.02 173.26&#xA;  Q 185.10 176.62 193.15 181.22&#xA;  Q 200.86 185.63 207.30 190.46&#xA;  Q 215.04 196.25 222.14 201.98&#xA;  C 230.95 209.09 239.16 217.72 247.57 225.68&#xA;  Q 248.65 226.70 249.55 227.99&#xA;  Q 250.04 228.70 249.96 227.84&#xA;  Z&#xA;  M 297.05 218.12&#xA;  C 297.77 219.36 299.13 219.15 300.21 220.09&#xA;  Q 302.81 222.36 303.96 224.93&#xA;  Q 303.98 224.98 304.03 224.95&#xA;  L 304.26 224.82&#xA;  Q 304.46 224.70 304.33 224.51&#xA;  Q 303.31 223.01 303.43 221.30&#xA;  Q 303.47 220.77 303.12 220.38&#xA;  Q 301.47 218.57 301.81 215.62&#xA;  Q 301.87 215.07 302.38 215.29&#xA;  Q 305.12 216.51 308.54 214.37&#xA;  Q 308.94 214.11 308.98 213.64&#xA;  Q 309.08 212.68 310.03 212.90&#xA;  Q 310.89 213.09 310.62 212.25&#xA;  Q 310.37 211.48 310.41 210.63&#xA;  Q 310.44 209.87 309.71 210.02&#xA;  Q 308.96 210.17 308.61 210.81&#xA;  A 0.43 0.43 0.0 0 1 307.85 210.80&#xA;  Q 306.87 208.80 309.30 208.70&#xA;  Q 310.49 208.65 309.67 207.79&#xA;  L 309.02 207.11&#xA;  A 0.49 0.48 40.9 0 1 308.97 206.50&#xA;  L 309.14 206.27&#xA;  Q 309.50 205.74 309.94 206.21&#xA;  Q 310.37 206.67 310.36 207.30&#xA;  A 0.95 0.93 18.3 0 0 310.77 208.09&#xA;  Q 313.43 209.89 314.03 213.09&#xA;  Q 314.04 213.14 314.01 213.18&#xA;  Q 313.99 213.20 314.26 212.99&#xA;  Q 314.32 212.94 314.29 212.86&#xA;  L 310.41 204.02&#xA;  Q 310.19 203.53 310.31 202.99&#xA;  L 311.12 199.31&#xA;  Q 311.24 198.74 311.81 198.60&#xA;  Q 312.26 198.49 312.74 198.57&#xA;  Q 312.88 198.60 312.94 198.73&#xA;  Q 312.97 198.80 313.02 198.85&#xA;  Q 313.70 199.49 313.33 198.63&#xA;  Q 313.02 197.94 312.86 197.24&#xA;  A 1.31 1.30 -26.6 0 1 313.30 195.93&#xA;  C 315.02 194.50 313.98 193.26 314.28 191.53&#xA;  Q 314.43 190.71 314.39 189.75&#xA;  Q 314.37 189.26 314.69 188.88&#xA;  Q 315.38 188.06 315.45 187.02&#xA;  Q 315.48 186.68 315.14 186.64&#xA;  Q 313.10 186.41 313.74 184.18&#xA;  A 1.02 1.02 0.0 0 1 315.37 183.67&#xA;  Q 315.74 183.97 316.09 184.29&#xA;  Q 316.24 184.43 316.39 184.28&#xA;  L 316.39 184.27&#xA;  Q 316.54 184.12 316.39 183.97&#xA;  Q 314.55 182.15 313.44 180.33&#xA;  C 311.92 177.85 309.27 176.58 306.51 176.72&#xA;  C 302.06 176.94 296.99 178.17 293.07 180.75&#xA;  C 289.57 183.06 286.38 184.70 283.82 188.30&#xA;  C 282.49 190.18 280.48 191.32 279.14 193.17&#xA;  Q 276.55 196.75 273.95 200.63&#xA;  C 270.29 206.11 268.78 211.57 267.68 218.02&#xA;  C 267.30 220.22 268.00 222.43 267.88 224.67&#xA;  Q 267.85 225.12 268.11 225.51&#xA;  Q 268.97 226.79 269.95 228.07&#xA;  C 271.84 230.54 275.42 230.92 278.36 230.61&#xA;  Q 279.80 230.46 279.88 231.84&#xA;  Q 279.91 232.33 280.30 232.04&#xA;  L 283.06 230.02&#xA;  Q 283.41 229.76 283.81 229.92&#xA;  C 284.79 230.30 285.67 231.10 286.80 230.80&#xA;  Q 287.56 230.60 287.30 229.86&#xA;  L 287.08 229.24&#xA;  A 0.45 0.45 0.0 0 1 287.42 228.64&#xA;  L 288.18 228.48&#xA;  Q 288.60 228.39 288.72 228.81&#xA;  Q 289.19 230.65 291.03 229.97&#xA;  Q 291.67 229.73 291.31 229.16&#xA;  L 290.12 227.27&#xA;  Q 289.54 226.34 290.55 226.77&#xA;  Q 291.93 227.34 292.38 229.07&#xA;  Q 292.88 231.06 293.49 229.10&#xA;  Q 294.04 227.31 293.21 225.25&#xA;  Q 293.03 224.79 293.38 224.44&#xA;  A 0.64 0.63 38.3 0 1 294.18 224.35&#xA;  Q 296.58 225.89 296.16 228.42&#xA;  Q 296.03 229.18 296.61 228.67&#xA;  C 298.58 226.94 296.97 223.88 295.98 221.98&#xA;  Q 295.62 221.27 296.26 221.74&#xA;  Q 297.17 222.41 298.37 222.72&#xA;  A 0.60 0.60 0.0 0 0 299.09 221.94&#xA;  Q 298.50 220.16 296.78 218.54&#xA;  Q 296.67 218.44 296.77 218.32&#xA;  L 296.97 218.11&#xA;  A 0.05 0.05 0.0 0 1 297.05 218.12&#xA;  Z&#xA;  M 317.25 189.25&#xA;  Q 316.97 189.77 316.68 190.32&#xA;  Q 316.46 190.74 316.91 190.62&#xA;  Q 317.08 190.58 317.24 190.64&#xA;  A 0.35 0.34 30.5 0 0 317.64 190.54&#xA;  Q 318.06 189.99 317.79 189.29&#xA;  A 0.30 0.30 0.0 0 0 317.25 189.25&#xA;  Z&#xA;  M 318.46 194.76&#xA;  A 0.66 0.66 0.0 0 0 317.70 193.84&#xA;  Q 317.02 194.00 316.73 194.84&#xA;  Q 316.47 195.63 317.30 195.59&#xA;  Q 318.10 195.55 318.46 194.76&#xA;  Z&#xA;  M 318.48 199.21&#xA;  Q 317.79 198.21 317.97 199.41&#xA;  Q 318.03 199.83 318.34 200.16&#xA;  Q 318.68 200.52 318.70 200.03&#xA;  Q 318.72 199.55 318.48 199.21&#xA;  Z&#xA;  M 317.21 203.85&#xA;  A 0.27 0.27 0.0 0 0 317.65 203.71&#xA;  Q 317.80 203.14 317.28 202.88&#xA;  Q 316.88 202.67 316.88 203.12&#xA;  Q 316.87 203.56 317.21 203.85&#xA;  Z&#xA;  M 307.75 218.37&#xA;  A 0.52 0.52 0.0 0 0 307.92 218.48&#xA;  L 310.27 219.48&#xA;  A 0.52 0.52 0.0 0 0 310.95 218.80&#xA;  L 309.54 215.40&#xA;  A 0.52 0.52 0.0 0 0 308.89 215.11&#xA;  L 306.45 215.97&#xA;  A 0.52 0.52 0.0 0 0 306.25 216.82&#xA;  L 307.75 218.37&#xA;  Z&#xA;  M 305.5990 219.7057&#xA;  A 1.80 1.10 46.5 0 0 305.1579 217.6428&#xA;  A 1.80 1.10 46.5 0 0 303.1210 217.0943&#xA;  A 1.80 1.10 46.5 0 0 303.5621 219.1572&#xA;  A 1.80 1.10 46.5 0 0 305.5990 219.7057&#xA;  Z&#xA;  M 315.22 220.59&#xA;  Q 314.56 219.92 314.32 220.69&#xA;  A 0.49 0.48 -63.5 0 0 314.49 221.21&#xA;  Q 314.97 221.58 315.26 221.22&#xA;  A 0.48 0.47 41.7 0 0 315.22 220.59&#xA;  Z&#xA;  M 310.28 222.18&#xA;  L 310.98 222.13&#xA;  Q 311.22 222.12 311.10 221.91&#xA;  Q 311.02 221.77 310.74 221.71&#xA;  Q 309.32 221.43 307.95 221.29&#xA;  Q 307.35 221.22 307.52 221.80&#xA;  Q 308.03 223.54 310.00 224.75&#xA;  Q 310.56 225.09 310.22 224.52&#xA;  Q 309.77 223.78 309.75 222.76&#xA;  Q 309.73 222.21 310.28 222.18&#xA;  Z&#xA;  M 316.06 226.04&#xA;  Q 316.48 224.96 315.46 225.48&#xA;  Q 314.94 225.74 314.39 225.97&#xA;  Q 313.52 226.32 314.41 226.61&#xA;  Q 315.68 227.02 316.06 226.04&#xA;  Z&#xA;  M 278.51 233.23&#xA;  A 0.31 0.30 60.2 0 0 278.40 233.66&#xA;  Q 278.67 234.10 279.15 234.13&#xA;  Q 279.66 234.15 279.62 233.65&#xA;  Q 279.61 233.51 279.64 233.38&#xA;  Q 279.84 232.51 279.13 232.89&#xA;  L 278.51 233.23&#xA;  Z&#xA;  M 352.40 275.79&#xA;  Q 352.66 275.36 353.16 275.23&#xA;  Q 353.62 275.11 353.21 274.85&#xA;  Q 353.00 274.72 352.74 274.72&#xA;  Q 318.94 274.72 285.98 274.66&#xA;  Q 285.50 274.66 285.77 275.06&#xA;  Q 290.28 281.69 294.39 289.26&#xA;  C 294.98 290.34 295.92 291.26 296.49 292.30&#xA;  Q 307.23 311.88 318.59 332.24&#xA;  A 0.27 0.26 -45.9 0 0 319.06 332.23&#xA;  Q 322.93 324.60 327.43 316.80&#xA;  C 328.44 315.04 329.73 313.64 330.54 311.79&#xA;  C 331.96 308.52 334.12 305.61 335.84 302.31&#xA;  Q 339.55 295.23 344.81 286.86&#xA;  Q 346.82 283.65 348.69 281.19&#xA;  Q 350.72 278.52 352.40 275.79&#xA;  Z"/>
<path fill="#f9df16" d="&#xA;  M 241.22 111.55&#xA;  A 0.06 0.06 0.0 0 1 241.30 111.59&#xA;  L 241.38 111.82&#xA;  Q 241.41 111.90 241.33 111.92&#xA;  Q 239.49 112.27 238.26 113.55&#xA;  A 0.83 0.82 -38.3 0 1 236.95 113.40&#xA;  Q 236.36 112.39 236.75 111.45&#xA;  Q 237.07 110.68 237.77 111.13&#xA;  Q 239.42 112.18 241.22 111.55&#xA;  Z"/>
<path fill="#fdfdfc" d="&#xA;  M 297.05 218.12&#xA;  A 0.05 0.05 0.0 0 0 296.97 218.11&#xA;  L 296.77 218.32&#xA;  Q 296.67 218.44 296.78 218.54&#xA;  Q 298.50 220.16 299.09 221.94&#xA;  A 0.60 0.60 0.0 0 1 298.37 222.72&#xA;  Q 297.17 222.41 296.26 221.74&#xA;  Q 295.62 221.27 295.98 221.98&#xA;  C 296.97 223.88 298.58 226.94 296.61 228.67&#xA;  Q 296.03 229.18 296.16 228.42&#xA;  Q 296.58 225.89 294.18 224.35&#xA;  A 0.64 0.63 38.3 0 0 293.38 224.44&#xA;  Q 293.03 224.79 293.21 225.25&#xA;  Q 294.04 227.31 293.49 229.10&#xA;  Q 292.88 231.06 292.38 229.07&#xA;  Q 291.93 227.34 290.55 226.77&#xA;  Q 289.54 226.34 290.12 227.27&#xA;  L 291.31 229.16&#xA;  Q 291.67 229.73 291.03 229.97&#xA;  Q 289.19 230.65 288.72 228.81&#xA;  Q 288.60 228.39 288.18 228.48&#xA;  L 287.42 228.64&#xA;  A 0.45 0.45 0.0 0 0 287.08 229.24&#xA;  L 287.30 229.86&#xA;  Q 287.56 230.60 286.80 230.80&#xA;  C 285.67 231.10 284.79 230.30 283.81 229.92&#xA;  Q 283.41 229.76 283.06 230.02&#xA;  L 280.30 232.04&#xA;  Q 279.91 232.33 279.88 231.84&#xA;  Q 279.80 230.46 278.36 230.61&#xA;  C 275.42 230.92 271.84 230.54 269.95 228.07&#xA;  Q 268.97 226.79 268.11 225.51&#xA;  Q 267.85 225.12 267.88 224.67&#xA;  C 268.00 222.43 267.30 220.22 267.68 218.02&#xA;  C 268.78 211.57 270.29 206.11 273.95 200.63&#xA;  Q 276.55 196.75 279.14 193.17&#xA;  C 280.48 191.32 282.49 190.18 283.82 188.30&#xA;  C 286.38 184.70 289.57 183.06 293.07 180.75&#xA;  C 296.99 178.17 302.06 176.94 306.51 176.72&#xA;  C 309.27 176.58 311.92 177.85 313.44 180.33&#xA;  Q 314.55 182.15 316.39 183.97&#xA;  Q 316.54 184.12 316.39 184.27&#xA;  L 316.39 184.28&#xA;  Q 316.24 184.43 316.09 184.29&#xA;  Q 315.74 183.97 315.37 183.67&#xA;  A 1.02 1.02 0.0 0 0 313.74 184.18&#xA;  Q 313.10 186.41 315.14 186.64&#xA;  Q 315.48 186.68 315.45 187.02&#xA;  Q 315.38 188.06 314.69 188.88&#xA;  Q 314.37 189.26 314.39 189.75&#xA;  Q 314.43 190.71 314.28 191.53&#xA;  C 313.98 193.26 315.02 194.50 313.30 195.93&#xA;  A 1.31 1.30 -26.6 0 0 312.86 197.24&#xA;  Q 313.02 197.94 313.33 198.63&#xA;  Q 313.70 199.49 313.02 198.85&#xA;  Q 312.97 198.80 312.94 198.73&#xA;  Q 312.88 198.60 312.74 198.57&#xA;  Q 312.26 198.49 311.81 198.60&#xA;  Q 311.24 198.74 311.12 199.31&#xA;  L 310.31 202.99&#xA;  Q 310.19 203.53 310.41 204.02&#xA;  L 314.29 212.86&#xA;  Q 314.32 212.94 314.26 212.99&#xA;  Q 313.99 213.20 314.01 213.18&#xA;  Q 314.04 213.14 314.03 213.09&#xA;  Q 313.43 209.89 310.77 208.09&#xA;  A 0.95 0.93 18.3 0 1 310.36 207.30&#xA;  Q 310.37 206.67 309.94 206.21&#xA;  Q 309.50 205.74 309.14 206.27&#xA;  L 308.97 206.50&#xA;  A 0.49 0.48 40.9 0 0 309.02 207.11&#xA;  L 309.67 207.79&#xA;  Q 310.49 208.65 309.30 208.70&#xA;  Q 306.87 208.80 307.85 210.80&#xA;  A 0.43 0.43 0.0 0 0 308.61 210.81&#xA;  Q 308.96 210.17 309.71 210.02&#xA;  Q 310.44 209.87 310.41 210.63&#xA;  Q 310.37 211.48 310.62 212.25&#xA;  Q 310.89 213.09 310.03 212.90&#xA;  Q 309.08 212.68 308.98 213.64&#xA;  Q 308.94 214.11 308.54 214.37&#xA;  Q 305.12 216.51 302.38 215.29&#xA;  Q 301.87 215.07 301.81 215.62&#xA;  Q 301.47 218.57 303.12 220.38&#xA;  Q 303.47 220.77 303.43 221.30&#xA;  Q 303.31 223.01 304.33 224.51&#xA;  Q 304.46 224.70 304.26 224.82&#xA;  L 304.03 224.95&#xA;  Q 303.98 224.98 303.96 224.93&#xA;  Q 302.81 222.36 300.21 220.09&#xA;  C 299.13 219.15 297.77 219.36 297.05 218.12&#xA;  Z"/>
<path fill="#fdfdfc" d="&#xA;  M 317.25 189.25&#xA;  A 0.30 0.30 0.0 0 1 317.79 189.29&#xA;  Q 318.06 189.99 317.64 190.54&#xA;  A 0.35 0.34 30.5 0 1 317.24 190.64&#xA;  Q 317.08 190.58 316.91 190.62&#xA;  Q 316.46 190.74 316.68 190.32&#xA;  Q 316.97 189.77 317.25 189.25&#xA;  Z"/>
<path fill="#fdfdfc" d="&#xA;  M 318.46 194.76&#xA;  Q 318.10 195.55 317.30 195.59&#xA;  Q 316.47 195.63 316.73 194.84&#xA;  Q 317.02 194.00 317.70 193.84&#xA;  A 0.66 0.66 0.0 0 1 318.46 194.76&#xA;  Z"/>
<path fill="#fdfdfc" d="&#xA;  M 318.48 199.21&#xA;  Q 318.72 199.55 318.70 200.03&#xA;  Q 318.68 200.52 318.34 200.16&#xA;  Q 318.03 199.83 317.97 199.41&#xA;  Q 317.79 198.21 318.48 199.21&#xA;  Z"/>
<path fill="#fdfdfc" d="&#xA;  M 317.21 203.85&#xA;  Q 316.87 203.56 316.88 203.12&#xA;  Q 316.88 202.67 317.28 202.88&#xA;  Q 317.80 203.14 317.65 203.71&#xA;  A 0.27 0.27 0.0 0 1 317.21 203.85&#xA;  Z"/>
<path fill="#fdfdfc" d="&#xA;  M 307.75 218.37&#xA;  L 306.25 216.82&#xA;  A 0.52 0.52 0.0 0 1 306.45 215.97&#xA;  L 308.89 215.11&#xA;  A 0.52 0.52 0.0 0 1 309.54 215.40&#xA;  L 310.95 218.80&#xA;  A 0.52 0.52 0.0 0 1 310.27 219.48&#xA;  L 307.92 218.48&#xA;  A 0.52 0.52 0.0 0 1 307.75 218.37&#xA;  Z"/>
<ellipse fill="#fdfdfc" cx="0.00" cy="0.00" transform="translate(304.36,218.40) rotate(46.5)" rx="1.80" ry="1.10"/>
<path fill="#fdfdfc" d="&#xA;  M 315.22 220.59&#xA;  A 0.48 0.47 41.7 0 1 315.26 221.22&#xA;  Q 314.97 221.58 314.49 221.21&#xA;  A 0.49 0.48 -63.5 0 1 314.32 220.69&#xA;  Q 314.56 219.92 315.22 220.59&#xA;  Z"/>
<path fill="#fdfdfc" d="&#xA;  M 309.75 222.76&#xA;  Q 309.77 223.78 310.22 224.52&#xA;  Q 310.56 225.09 310.00 224.75&#xA;  Q 308.03 223.54 307.52 221.80&#xA;  Q 307.35 221.22 307.95 221.29&#xA;  Q 309.32 221.43 310.74 221.71&#xA;  Q 311.02 221.77 311.10 221.91&#xA;  Q 311.22 222.12 310.98 222.13&#xA;  L 310.28 222.18&#xA;  Q 309.73 222.21 309.75 222.76&#xA;  Z"/>
<path fill="#fdfdfc" d="&#xA;  M 316.06 226.04&#xA;  Q 315.68 227.02 314.41 226.61&#xA;  Q 313.52 226.32 314.39 225.97&#xA;  Q 314.94 225.74 315.46 225.48&#xA;  Q 316.48 224.96 316.06 226.04&#xA;  Z"/>
<path fill="#fdfdfc" d="&#xA;  M 278.51 233.23&#xA;  L 279.13 232.89&#xA;  Q 279.84 232.51 279.64 233.38&#xA;  Q 279.61 233.51 279.62 233.65&#xA;  Q 279.66 234.15 279.15 234.13&#xA;  Q 278.67 234.10 278.40 233.66&#xA;  A 0.31 0.30 60.2 0 1 278.51 233.23&#xA;  Z"/>
<path fill="#f9df16" d="&#xA;  M 352.40 275.79&#xA;  Q 350.72 278.52 348.69 281.19&#xA;  Q 346.82 283.65 344.81 286.86&#xA;  Q 339.55 295.23 335.84 302.31&#xA;  C 334.12 305.61 331.96 308.52 330.54 311.79&#xA;  C 329.73 313.64 328.44 315.04 327.43 316.80&#xA;  Q 322.93 324.60 319.06 332.23&#xA;  A 0.27 0.26 -45.9 0 1 318.59 332.24&#xA;  Q 307.23 311.88 296.49 292.30&#xA;  C 295.92 291.26 294.98 290.34 294.39 289.26&#xA;  Q 290.28 281.69 285.77 275.06&#xA;  Q 285.50 274.66 285.98 274.66&#xA;  Q 318.94 274.72 352.74 274.72&#xA;  Q 353.00 274.72 353.21 274.85&#xA;  Q 353.62 275.11 353.16 275.23&#xA;  Q 352.66 275.36 352.40 275.79&#xA;  Z"/>
<path fill="#110510" d="&#xA;  M 414.86 443.43&#xA;  L 224.37 442.73&#xA;  A 0.63 0.63 0.0 0 1 223.74 442.10&#xA;  L 223.70 383.35&#xA;  A 0.63 0.63 0.0 0 1 224.33 382.72&#xA;  L 414.92 382.71&#xA;  A 0.63 0.63 0.0 0 1 415.55 383.34&#xA;  L 415.49 442.80&#xA;  A 0.63 0.63 0.0 0 1 414.86 443.43&#xA;  Z"/>
<path fill="#110510" d="&#xA;  M 307.57 525.37&#xA;  C 300.36 523.53 292.73 522.09 286.02 519.06&#xA;  Q 273.64 513.47 267.04 508.87&#xA;  Q 251.40 497.97 239.51 480.18&#xA;  A 0.59 0.59 0.0 0 1 240.00 479.26&#xA;  L 400.50 478.60&#xA;  Q 402.29 478.59 400.82 479.67&#xA;  C 398.84 481.11 397.90 483.18 396.34 485.02&#xA;  Q 393.86 487.94 391.48 490.96&#xA;  Q 383.62 500.91 370.87 509.91&#xA;  C 367.22 512.48 363.05 514.56 359.04 516.53&#xA;  Q 346.19 522.83 332.66 524.92&#xA;  A 2.82 2.82 0.0 0 0 330.33 527.13&#xA;  Q 329.59 530.72 328.22 533.83&#xA;  C 325.83 539.22 324.51 544.97 322.86 550.82&#xA;  Q 322.43 552.32 321.80 556.62&#xA;  C 321.67 557.52 321.98 558.41 322.26 559.24&#xA;  Q 322.29 559.32 322.20 559.34&#xA;  L 321.95 559.39&#xA;  Q 321.75 559.44 321.69 559.24&#xA;  Q 318.56 549.42 314.23 539.96&#xA;  C 312.12 535.37 310.50 530.65 308.47 526.13&#xA;  Q 308.20 525.53 307.57 525.37&#xA;  Z"/>
</svg>